<?xml version="1.0" encoding="UTF-8" standalone="no" ?>
<!DOCTYPE svg PUBLIC "-//W3C//DTD SVG 1.1//EN" "http://www.w3.org/Graphics/SVG/1.1/DTD/svg11.dtd">
<svg xmlns="http://www.w3.org/2000/svg" xmlns:xlink="http://www.w3.org/1999/xlink" version="1.1" width="1080" height="1080" viewBox="0 0 1080 1080" xml:space="preserve">
<desc>Created with Fabric.js 5.2.4</desc>
<defs>
</defs>
<g transform="matrix(1 0 0 1 540 540)" id="b299bb24-d177-433c-b69f-198d68ccc768"  >
<rect style="stroke: none; stroke-width: 1; stroke-dasharray: none; stroke-linecap: butt; stroke-dashoffset: 0; stroke-linejoin: miter; stroke-miterlimit: 4; fill: rgb(255,255,255); fill-rule: nonzero; opacity: 1; visibility: hidden;" vector-effect="non-scaling-stroke"  x="-540" y="-540" rx="0" ry="0" width="1080" height="1080" />
</g>
<g transform="matrix(1 0 0 1 540 540)" id="84935ef3-b30a-4f9d-a27f-2fbc70e9688e"  >
</g>
<g transform="matrix(1.76 0 0 1.76 540 470.23)"  >
<g style="" vector-effect="non-scaling-stroke"   >
		<g transform="matrix(1 0 0 1 0 0)"  >
<path style="stroke: none; stroke-width: 1; stroke-dasharray: none; stroke-linecap: butt; stroke-dashoffset: 0; stroke-linejoin: miter; stroke-miterlimit: 4; fill: rgb(255,255,255); fill-rule: nonzero; opacity: 1;" vector-effect="non-scaling-stroke"  transform=" translate(-200.27, -85.56)" d="M 54.23 0 L 54.23 17 L 81.72999999999999 17 L 81.72999999999999 124.48 L 102.1 124.48 L 102.1 17 L 333.48 17 L 333.48 0 L 54.23 0 z M 278.72 70.7 L 309.72 32.45 L 333.46000000000004 32.45 L 302.09000000000003 68.57 L 336.71000000000004 124.94 L 313.71000000000004 124.94 L 288.85 84 L 278.72 95.32 Z M 2 150.88 L 15.52 150.88 L 15.52 154.51999999999998 L 6.4 154.51999999999998 L 6.4 158.76999999999998 L 13 158.76999999999998 L 13 162.21999999999997 L 6.4 162.21999999999997 L 6.4 167.14999999999998 L 16 167.14999999999998 L 16 170.67999999999998 L 2 170.67999999999998 Z M 19 150.88 L 23.36 150.88 L 31.66 163.51 L 31.71 163.51 L 31.71 150.88 L 35.71 150.88 L 35.71 170.68 L 31.71 170.68 L 23.07 157.94 L 23 157.94 L 23 170.68 L 19 170.68 Z M 38.84 160.7 C 38.84 154.48999999999998 42.290000000000006 150.5 47.84 150.5 C 51.59 150.5 54.580000000000005 152 55.84 156.84 L 51.84 157.94 C 51.010000000000005 155.19 49.760000000000005 154.10999999999999 47.84 154.10999999999999 C 46.24 154.10999999999999 43.24 155.04999999999998 43.24 160.61999999999998 C 43.24 166.18999999999997 45.910000000000004 167.54999999999998 48.03 167.54999999999998 C 50.097536138832666 167.59409519091304 51.8578194555075 166.054931207121 52.09 163.99999999999997 L 48.63 163.99999999999997 L 48.63 160.75999999999996 L 56.24 160.75999999999996 L 56.24 170.68999999999997 L 52.730000000000004 170.68999999999997 L 52.730000000000004 168 C 51.787919795963845 169.98113735224896 49.7516183598092 171.20606916393967 47.56 171.11 C 41.52 171.06 38.84 166.67000000000002 38.84 160.70000000000002 Z M 60.36 150.88 L 64.69 150.88 L 64.69 170.68 L 60.36 170.68 Z M 69 150.88 L 73.36 150.88 L 81.66 163.51 L 81.66 150.88 L 85.66 150.88 L 85.66 170.68 L 81.66 170.68 L 73.02 157.94 L 73 157.94 L 73 170.68 L 69 170.68 Z M 89.78 150.88 L 103.26 150.88 L 103.26 154.51999999999998 L 94.14 154.51999999999998 L 94.14 158.76999999999998 L 100.75 158.76999999999998 L 100.75 162.21999999999997 L 94.14 162.21999999999997 L 94.14 167.14999999999998 L 103.75 167.14999999999998 L 103.75 170.67999999999998 L 89.75 170.67999999999998 Z M 106.72 150.88 L 120.21 150.88 L 120.21 154.51999999999998 L 111.08 154.51999999999998 L 111.08 158.76999999999998 L 117.69 158.76999999999998 L 117.69 162.21999999999997 L 111.08 162.21999999999997 L 111.08 167.14999999999998 L 120.69 167.14999999999998 L 120.69 170.67999999999998 L 106.69 170.67999999999998 Z M 123.66 150.88 L 131.1 150.88 C 135.97 150.88 138.89 152.62 138.89 157 C 138.89 160.14 137.42 161.85 134.76999999999998 162.65 L 139.18999999999997 170.65 L 134.57999999999996 170.65 L 130.45999999999995 163.18 L 128 163.18 L 128 170.65 L 123.71 170.65 Z M 130.92 159.88 C 133.42999999999998 159.88 134.64 159.16 134.64 157.15 C 134.64 155.14000000000001 133.42999999999998 154.48000000000002 130.92 154.48000000000002 L 127.91999999999999 154.48000000000002 L 127.91999999999999 159.88000000000002 Z M 142.75 150.88 L 147.08 150.88 L 147.08 170.68 L 142.75 170.68 Z M 151.37 150.88 L 155.73000000000002 150.88 L 164.03000000000003 163.51 L 164.08000000000004 163.51 L 164.08000000000004 150.88 L 168.08000000000004 150.88 L 168.08000000000004 170.68 L 164.08000000000004 170.68 L 155.43000000000004 157.94 L 155.38000000000002 157.94 L 155.38000000000002 170.68 L 151.38000000000002 170.68 Z M 171.23000000000002 160.7 C 171.23000000000002 154.48999999999998 174.68 150.5 180.23000000000002 150.5 C 183.97000000000003 150.5 186.97000000000003 152 188.23000000000002 156.84 L 184.23000000000002 157.94 C 183.4 155.19 182.14000000000001 154.10999999999999 180.23000000000002 154.10999999999999 C 178.62 154.10999999999999 175.63000000000002 155.04999999999998 175.63000000000002 160.61999999999998 C 175.63000000000002 166.18999999999997 178.3 167.54999999999998 180.42000000000002 167.54999999999998 C 182.49476835716354 167.59884899580842 184.26228721144741 166.052812848081 184.49 163.98999999999998 L 181 163.98999999999998 L 181 160.74999999999997 L 188.6 160.74999999999997 L 188.6 170.67999999999998 L 185.1 170.67999999999998 L 185.1 168 L 185.04 168 C 184.1055667207631 169.9833015739812 182.07012155802667 171.21009119725844 179.88 171.11 C 173.9 171.06 171.23 166.67000000000002 171.23 160.70000000000002 Z M 204.36 150.79999999999998 L 208.51000000000002 150.79999999999998 L 215.51000000000002 170.67999999999998 L 211.10000000000002 170.67999999999998 L 209.63000000000002 166.26999999999998 L 202.88000000000002 166.26999999999998 L 201.36 170.67999999999998 L 197.36 170.67999999999998 Z M 208.62 163.10999999999999 L 206.34 156.35999999999999 L 206.29 156.35999999999999 L 204 163.10999999999999 Z M 218 150.88 L 222.36 150.88 L 230.66000000000003 163.51 L 230.66000000000003 150.88 L 234.66000000000003 150.88 L 234.66000000000003 170.68 L 230.66000000000003 170.68 L 222.01000000000002 157.94 L 222 157.94 L 222 170.68 L 218 170.68 Z M 238.81 150.88 L 244.89000000000001 150.88 C 250.94000000000003 150.88 255.49 153.44 255.49 160.67 C 255.49 168.10999999999999 250.86 170.67 244.89000000000001 170.67 L 238.81 170.67 Z M 245.19 167.15 C 249.49 167.15 251.13 165.22 251.13 160.73000000000002 C 251.13 156.50000000000003 249.47 154.52 245.13 154.52 L 243.13 154.52 L 243.13 167.15 Z M 264.75 166.19 L 268.04 164.19 C 269.01773895801557 166.2614656348453 271.10943929486007 167.57658319737627 273.40000000000003 167.56 C 275.40000000000003 167.56 276.85 166.81 276.85 165.29 C 276.85 163.76999999999998 275.43 163.15 272.85 162.42 C 269.32000000000005 161.42 265.63 160.51999999999998 265.63 156.42 C 265.63 152.72 268.52 150.5 272.77 150.5 C 275.93111571679816 150.35755630927306 278.92919918936946 151.90802641516441 280.64 154.57 L 277.64 156.87 C 276.59341569743555 155.17302663683688 274.7629441590412 154.11684080051486 272.77 154.06 C 270.91999999999996 154.06 269.9 154.86 269.9 156.06 C 269.9 157.64000000000001 271.38 158.2 273.96999999999997 158.92000000000002 C 277.45 159.86 281.14 160.92000000000002 281.14 165.05 C 281.14 168.24 278.74 171.05 273.21999999999997 171.05 C 269.6787591299515 171.26983226617654 266.34720927991333 169.35822278905897 264.74999999999994 166.19 Z M 284.35 150.88 L 297.83000000000004 150.88 L 297.83000000000004 154.51999999999998 L 288.71000000000004 154.51999999999998 L 288.71000000000004 158.76999999999998 L 295.32000000000005 158.76999999999998 L 295.32000000000005 162.21999999999997 L 288.71000000000004 162.21999999999997 L 288.71000000000004 167.14999999999998 L 298.32000000000005 167.14999999999998 L 298.32000000000005 170.67999999999998 L 284.32000000000005 170.67999999999998 Z M 301.29 150.88 L 308.73 150.88 C 313.6 150.88 316.52000000000004 152.62 316.52000000000004 157 C 316.52000000000004 160.14 315.05 161.85 312.40000000000003 162.65 L 316.81000000000006 170.65 L 312.21000000000004 170.65 L 308.09000000000003 163.18 L 305.57000000000005 163.18 L 305.57000000000005 170.65 L 301.2900000000001 170.65 Z M 308.54 159.88 C 311.06 159.88 312.26000000000005 159.16 312.26000000000005 157.15 C 312.26000000000005 155.14000000000001 311.06000000000006 154.48000000000002 308.54 154.48000000000002 L 305.54 154.48000000000002 L 305.54 159.88000000000002 Z M 318 150.88 L 322.42 150.88 L 326.93 165 L 327 165 L 331.69 150.85 L 335.78 150.85 L 328.96 170.73 L 324.84 170.73 Z M 338.47 150.88 L 342.8 150.88 L 342.8 170.68 L 338.47 170.68 Z M 346.15000000000003 160.75 C 346.15000000000003 153.87 350.15000000000003 150.5 355.15000000000003 150.5 C 360.15000000000003 150.5 362.32000000000005 153.18 363.15000000000003 156.74 L 359.03000000000003 157.94 C 358.39000000000004 155.67 357.42 154.10999999999999 355.1 154.10999999999999 C 352.1 154.10999999999999 350.49 156.66 350.49 160.74999999999997 C 350.49 164.83999999999995 352.15000000000003 167.54999999999998 355.15000000000003 167.54999999999998 C 357.48 167.54999999999998 358.63000000000005 166.07999999999998 359.32000000000005 163.36999999999998 L 363.4200000000001 164.27999999999997 C 362.4200000000001 168.27999999999997 360.1000000000001 171.05999999999997 355.12000000000006 171.05999999999997 C 350.00000000000006 171.05999999999997 346.15000000000003 167.73999999999998 346.15000000000003 160.74999999999997 Z M 366.6 150.88 L 380.09000000000003 150.88 L 380.09000000000003 154.51999999999998 L 371 154.51999999999998 L 371 158.76999999999998 L 377.61 158.76999999999998 L 377.61 162.21999999999997 L 371 162.21999999999997 L 371 167.14999999999998 L 380.61 167.14999999999998 L 380.61 170.67999999999998 L 366.61 170.67999999999998 Z M 382.15000000000003 166.19 L 385.44000000000005 164.19 C 386.4177389580156 166.2614656348453 388.5094392948601 167.57658319737627 390.80000000000007 167.56 C 392.80000000000007 167.56 394.25000000000006 166.81 394.25000000000006 165.29 C 394.25000000000006 163.76999999999998 392.83000000000004 163.15 390.25000000000006 162.42 C 386.7200000000001 161.42 383.03000000000003 160.51999999999998 383.03000000000003 156.42 C 383.03000000000003 152.72 385.92 150.5 390.17 150.5 C 393.3311157167982 150.35755630927306 396.3291991893695 151.90802641516441 398.04 154.57 L 395.04 156.87 C 393.9921129330187 155.17436874898561 392.16243417805373 154.11864035033025 390.17 154.06 C 388.32 154.06 387.3 154.86 387.3 156.06 C 387.3 157.64000000000001 388.78000000000003 158.2 391.37 158.92000000000002 C 394.85 159.86 398.54 160.92000000000002 398.54 165.05 C 398.54 168.24 396.14000000000004 171.05 390.62 171.05 C 387.07875912995155 171.26983226617654 383.74720927991336 169.35822278905897 382.15 166.19 Z" stroke-linecap="round" />
</g>
		<g transform="matrix(1 0 0 1 -48.74 -7.21)"  >
<path style="stroke: none; stroke-width: 1; stroke-dasharray: none; stroke-linecap: butt; stroke-dashoffset: 0; stroke-linejoin: miter; stroke-miterlimit: 4; fill: rgb(255,255,255); fill-rule: nonzero; opacity: 1;" vector-effect="non-scaling-stroke"  transform=" translate(-151.53, -78.35)" d="M 161.71 124.59 L 180.95000000000002 61.480000000000004 L 180.95000000000002 124.59 L 161.71 124.59 z M 141.36 124.59 L 122.11000000000001 61.480000000000004 L 122.11000000000001 124.59 L 141.36 124.59 z M 130.96 32.11 L 151.58 100.1 L 171.08 32.11 L 130.96 32.11 z" stroke-linecap="round" />
</g>
		<g transform="matrix(1 0 0 1 -6.41 -30)"  >
<path style="stroke: none; stroke-width: 1; stroke-dasharray: none; stroke-linecap: butt; stroke-dashoffset: 0; stroke-linejoin: miter; stroke-miterlimit: 4; fill: rgb(255,255,255); fill-rule: nonzero; opacity: 1;" vector-effect="non-scaling-stroke"  transform=" translate(-193.86, -55.55)" d="M 243.45 98.22 L 243.45 97.73 C 243.45756703372388 92.97116147280596 240.93505470587803 88.56698695250542 236.82648340223608 86.1656866316801 C 232.71791209859416 83.7643863108548 227.64262947903788 83.7279448368341 223.5 86.07000000000001 L 201.12 70.55000000000001 L 201.12 87.32000000000001 L 216.73000000000002 98.13000000000001 C 216.85718448312537 102.67976700861745 219.29363530149206 106.85123317220697 223.1940497928946 109.19714930896646 C 227.09446428429715 111.54306544572596 231.92132497716523 111.74014004058017 236 109.72 L 227.27 104.72 L 225.59 95.85 L 234.11 92.85 Z M 258.42 68.67 L 243.42000000000002 58.31 L 243.42000000000002 58.1 C 243.4247149902195 52.09335353791622 239.43171700239733 46.8174149415961 233.64961575676514 45.19041489953871 C 227.86751451113292 43.56341485748133 221.70913455656932 45.98290185643822 218.5808031364164 51.11060762776327 C 215.45247171626346 56.238313399088334 216.11857935909578 62.82131131880944 220.21068815956832 67.21840917042606 C 224.30279696004087 71.61550702204266 230.82102270229748 72.75229819718237 236.16000000000003 70.00000000000001 L 258.42 85.42 Z M 226.15 64.94 L 222.15 58.099999999999994 L 226.15 51.25999999999999 L 234 51.25999999999999 L 238 58.099999999999994 L 234 64.94 Z M 81.73 17 L 54.230000000000004 17 L 54.230000000000004 0 L 333.48 0 L 333.48 17 L 81.73 17 Z" stroke-linecap="round" />
</g>
		<g transform="matrix(1 0 0 1 29.8 -7.17)"  >
<path style="stroke: none; stroke-width: 1; stroke-dasharray: none; stroke-linecap: butt; stroke-dashoffset: 0; stroke-linejoin: miter; stroke-miterlimit: 4; fill: rgb(255,255,255); fill-rule: nonzero; opacity: 1;" vector-effect="non-scaling-stroke"  transform=" translate(-230.06, -78.38)" d="M 201.79 45.8 L 201.79 32.22 L 215.37 32.22 L 201.79 45.8 z M 201.79 110.96 L 201.79 124.53999999999999 L 215.37 124.53999999999999 L 201.79 110.96 z M 258.34 45.8 L 258.34 32.22 L 244.75999999999996 32.22 L 258.34 45.8 z M 258.34 110.97 L 258.34 124.55 L 244.75999999999996 124.55 L 258.34 110.97 z" stroke-linecap="round" />
</g>
		<g transform="matrix(1 0 0 1 -138.2 -28.85)"  >
<path style="stroke: none; stroke-width: 1; stroke-dasharray: none; stroke-linecap: butt; stroke-dashoffset: 0; stroke-linejoin: miter; stroke-miterlimit: 4; fill: rgb(255,255,255); fill-rule: nonzero; opacity: 1;" vector-effect="non-scaling-stroke"  transform=" translate(-62.07, -56.7)" d="M 62.01 56.53 L 62.129999999999995 56.53 L 62.129999999999995 56.88 L 62.01 56.88 z" stroke-linecap="round" />
</g>
</g>
</g>
</svg>