<svg xmlns="http://www.w3.org/2000/svg" viewBox="0 0 399.71 176.17"><defs><style>.a{fill:#1c75bc}</style></defs><path class="a" d="M54.23 0v17h27.5v107.48h20.37V17h231.38V0H54.23zm224.49 70.7 31-38.25h23.74l-31.37 36.12 34.62 56.37h-23L288.85 84l-10.13 11.32ZM2 150.88h13.52v3.64H6.4v4.25H13v3.45H6.4v4.93H16v3.53H2Zm17 0h4.36l8.3 12.63h.05v-12.63h4v19.8h-4l-8.64-12.74H23v12.74h-4Zm19.84 9.82c0-6.21 3.45-10.2 9-10.2 3.75 0 6.74 1.5 8 6.34l-4 1.1c-.83-2.75-2.08-3.83-4-3.83-1.6 0-4.6.94-4.6 6.51s2.67 6.93 4.79 6.93a4 4 0 0 0 4.06-3.55h-3.46v-3.24h7.61v9.93h-3.51V168a5.46 5.46 0 0 1-5.17 3.11c-6.04-.05-8.72-4.44-8.72-10.41Zm21.52-9.82h4.33v19.8h-4.33Zm8.64 0h4.36l8.3 12.63v-12.63h4v19.8h-4l-8.64-12.74H73v12.74h-4Zm20.78 0h13.48v3.64h-9.12v4.25h6.61v3.45h-6.61v4.93h9.61v3.53h-14Zm16.94 0h13.49v3.64h-9.13v4.25h6.61v3.45h-6.61v4.93h9.61v3.53h-14Zm16.94 0h7.44c4.87 0 7.79 1.74 7.79 6.12 0 3.14-1.47 4.85-4.12 5.65l4.42 8h-4.61l-4.12-7.47H128v7.47h-4.29Zm7.26 9c2.51 0 3.72-.72 3.72-2.73s-1.21-2.67-3.72-2.67h-3v5.4Zm11.83-9h4.33v19.8h-4.33Zm8.62 0h4.36l8.3 12.63h.05v-12.63h4v19.8h-4l-8.65-12.74h-.05v12.74h-4Zm19.86 9.82c0-6.21 3.45-10.2 9-10.2 3.74 0 6.74 1.5 8 6.34l-4 1.1c-.83-2.75-2.09-3.83-4-3.83-1.61 0-4.6.94-4.6 6.51s2.67 6.93 4.79 6.93a4 4 0 0 0 4.07-3.56H181v-3.24h7.6v9.93h-3.5V168h-.06a5.43 5.43 0 0 1-5.16 3.11c-5.98-.05-8.65-4.44-8.65-10.41Zm33.13-9.9h4.15l7 19.88h-4.41l-1.47-4.41h-6.75l-1.52 4.41h-4Zm4.26 12.31-2.28-6.75h-.05l-2.29 6.75Zm9.38-12.23h4.36l8.3 12.63v-12.63h4v19.8h-4l-8.65-12.74H222v12.74h-4Zm20.81 0h6.08c6.05 0 10.6 2.56 10.6 9.79 0 7.44-4.63 10-10.6 10h-6.08Zm6.38 16.27c4.3 0 5.94-1.93 5.94-6.42 0-4.23-1.66-6.21-6-6.21h-2v12.63Zm19.56-.96 3.29-2a5.88 5.88 0 0 0 5.36 3.37c2 0 3.45-.75 3.45-2.27s-1.42-2.14-4-2.87c-3.53-1-7.22-1.9-7.22-6 0-3.7 2.89-5.92 7.14-5.92a8.88 8.88 0 0 1 7.87 4.07l-3 2.3a5.92 5.92 0 0 0-4.87-2.81c-1.85 0-2.87.8-2.87 2 0 1.58 1.48 2.14 4.07 2.86 3.48.94 7.17 2 7.17 6.13 0 3.19-2.4 6-7.92 6a8.87 8.87 0 0 1-8.47-4.86Zm19.6-15.31h13.48v3.64h-9.12v4.25h6.61v3.45h-6.61v4.93h9.61v3.53h-14Zm16.94 0h7.44c4.87 0 7.79 1.74 7.79 6.12 0 3.14-1.47 4.85-4.12 5.65l4.41 8h-4.6l-4.12-7.47h-2.52v7.47h-4.28Zm7.25 9c2.52 0 3.72-.72 3.72-2.73s-1.2-2.67-3.72-2.67h-3v5.4Zm9.46-9h4.42l4.51 14.12h.07l4.69-14.15h4.09l-6.82 19.88h-4.12Zm20.47 0h4.33v19.8h-4.33Zm7.68 9.87c0-6.88 4-10.25 9-10.25s7.17 2.68 8 6.24l-4.12 1.2c-.64-2.27-1.61-3.83-3.93-3.83-3 0-4.61 2.55-4.61 6.64s1.66 6.8 4.66 6.8c2.33 0 3.48-1.47 4.17-4.18l4.1.91c-1 4-3.32 6.78-8.3 6.78-5.12 0-8.97-3.32-8.97-10.31Zm20.45-9.87h13.49v3.64H371v4.25h6.61v3.45H371v4.93h9.61v3.53h-14Zm15.55 15.31 3.29-2a5.88 5.88 0 0 0 5.36 3.37c2 0 3.45-.75 3.45-2.27s-1.42-2.14-4-2.87c-3.53-1-7.22-1.9-7.22-6 0-3.7 2.89-5.92 7.14-5.92a8.88 8.88 0 0 1 7.87 4.07l-3 2.3a5.93 5.93 0 0 0-4.87-2.81c-1.85 0-2.87.8-2.87 2 0 1.58 1.48 2.14 4.07 2.86 3.48.94 7.17 2 7.17 6.13 0 3.19-2.4 6-7.92 6a8.87 8.87 0 0 1-8.47-4.86Z"/><path class="a" d="m161.71 124.59 19.24-63.11v63.11h-19.24zm-20.35 0-19.25-63.11v63.11h19.25zm-10.4-92.48 20.62 67.99 19.5-67.99h-40.12z"/><path d="M243.45 98.22v-.49a13.37 13.37 0 0 0-19.95-11.66l-22.38-15.52v16.77l15.61 10.81A13.35 13.35 0 0 0 236 109.72l-8.73-5-1.68-8.87 8.52-3Zm14.97-29.55-15-10.36v-.21a13.4 13.4 0 1 0-7.26 11.9l22.26 15.42Zm-32.27-3.73-4-6.84 4-6.84H234l4 6.84-4 6.84ZM81.73 17h-27.5V0h279.25v17H81.73Z" style="fill:#58595b"/><path class="a" d="M201.79 45.8V32.22h13.58L201.79 45.8zm0 65.16v13.58h13.58l-13.58-13.58zm56.55-65.16V32.22h-13.58l13.58 13.58zm0 65.17v13.58h-13.58l13.58-13.58z"/><path style="fill:#00a651" d="M62.01 56.53h.12v.35h-.12z"/></svg>